<svg id="Layer_1" data-name="Layer 1" xmlns="http://www.w3.org/2000/svg" xmlns:xlink="http://www.w3.org/1999/xlink" viewBox="0 0 427.36 417.78"><defs><style>.cls-1{fill:url(#linear-gradient);}.cls-2{fill:url(#linear-gradient-2);}.cls-3{opacity:0.44;isolation:isolate;fill:url(#radial-gradient);}</style><linearGradient id="linear-gradient" x1="-1412.17" y1="2363.05" x2="-1001.53" y2="2716.35" gradientTransform="translate(812.19 -1298.9) scale(0.56 0.57)" gradientUnits="userSpaceOnUse"><stop offset="0" stop-color="#5a9fd4"/><stop offset="1" stop-color="#306998"/></linearGradient><linearGradient id="linear-gradient-2" x1="-843.73" y1="2926.16" x2="-989.33" y2="2720.15" gradientTransform="translate(812.19 -1298.9) scale(0.56 0.57)" gradientUnits="userSpaceOnUse"><stop offset="0" stop-color="#ffd43b"/><stop offset="1" stop-color="#ffe873"/></linearGradient><radialGradient id="radial-gradient" cx="-8020.34" cy="1578.4" r="29.03" gradientTransform="translate(-1608.92 -1624.9) rotate(-90) scale(0.24 1.05)" gradientUnits="userSpaceOnUse"><stop offset="0" stop-color="#b8b8b8" stop-opacity="0.5"/><stop offset="1" stop-color="#7f7f7f" stop-opacity="0"/></radialGradient></defs><path class="cls-1" d="M234.9,33.22a292.72,292.72,0,0,0-48.37,4.07c-42.84,7.45-50.61,23.05-50.61,51.81v38H237.14v12.66H97.92c-29.41,0-55.18,17.41-63.23,50.53-9.3,38-9.71,61.66,0,101.3,7.19,29.51,24.38,50.53,53.8,50.53h34.8V296.57c0-32.89,28.91-61.91,63.24-61.91H287.64A50.59,50.59,0,0,0,338.25,184V89.1c0-27-23.14-47.31-50.61-51.82A321.57,321.57,0,0,0,234.9,33.22ZM180.16,63.77a19,19,0,1,1-19,19A19.05,19.05,0,0,1,180.16,63.77Z" transform="translate(-19.88 -33.22)"/><path class="cls-2" d="M350.88,139.74V184c0,34.32-29.55,63.2-63.24,63.2H186.53c-27.7,0-50.61,23.33-50.61,50.64v94.91c0,27,23.85,42.9,50.61,50.65,32,9.28,62.77,11,101.11,0,25.48-7.26,50.61-21.89,50.61-50.65v-38H237.14V342.11H388.87c29.42,0,40.38-20.21,50.61-50.54,10.57-31.21,10.12-61.24,0-101.29-7.27-28.84-21.16-50.54-50.61-50.54ZM294,380.09A19,19,0,1,1,275,399,19,19,0,0,1,294,380.09Z" transform="translate(-19.88 -33.22)"/><path class="cls-3" d="M91.75,299.34c0,3.84-16.09,7-35.93,7s-35.94-3.12-35.94-7,16.09-7,35.94-7S91.75,295.49,91.75,299.34Z" transform="translate(-19.88 -33.22)"/></svg>